<?xml version="1.0" encoding="utf-8"?>
<!-- Generator: Adobe Illustrator 26.2.1, SVG Export Plug-In . SVG Version: 6.00 Build 0)  -->
<svg version="1.1" id="图层_1" xmlns="http://www.w3.org/2000/svg" xmlns:xlink="http://www.w3.org/1999/xlink" x="0px" y="0px"
	 viewBox="0 0 44 24" style="enable-background:new 0 0 44 24;" xml:space="preserve">
<style type="text/css">
	.st0{fill:none;stroke:#515151;stroke-width:0.4575;stroke-miterlimit:10;}
	.st1{fill:#FFFFFF;}
</style>
<g>
	<g>
		<path d="M4.36,19.51V5.34h1.28c0.7,0,1.28,0.12,1.73,0.36c0.45,0.24,0.79,0.6,1.01,1.1C8.59,7.29,8.7,7.94,8.7,8.74
			s-0.1,1.46-0.31,1.96c-0.21,0.51-0.52,0.89-0.95,1.15c-0.43,0.26-0.96,0.39-1.6,0.4l-0.77,0.02v7.24H4.36z M8.38,19.51l-3.35-7.59
			h0.68l3.42,7.59H8.38z M5.41,11.75c0.61,0,1.11-0.1,1.48-0.3s0.64-0.52,0.82-0.96c0.18-0.44,0.26-1.01,0.26-1.73
			c0-0.7-0.09-1.26-0.27-1.66S7.25,6.4,6.89,6.23S6.05,5.96,5.45,5.96H5.08v5.79H5.41z"/>
		<path d="M12.26,19.62c-0.44,0-0.8-0.12-1.07-0.38c-0.28-0.25-0.49-0.75-0.64-1.49s-0.23-1.8-0.23-3.18c0-1.28,0.07-2.27,0.23-2.97
			c0.15-0.7,0.37-1.19,0.66-1.47c0.29-0.28,0.65-0.41,1.09-0.41c0.26,0,0.49,0.06,0.7,0.18c0.2,0.12,0.37,0.29,0.5,0.53
			c0.13,0.23,0.24,0.53,0.33,0.89h0.04l-0.02-1.48h0.68v9.66h-0.68l0.02-1.54h-0.02c-0.11,0.36-0.24,0.67-0.38,0.91
			s-0.31,0.43-0.51,0.55C12.75,19.56,12.52,19.62,12.26,19.62z M12.44,19.06c0.3,0,0.55-0.11,0.76-0.34
			c0.21-0.23,0.37-0.67,0.5-1.33c0.12-0.66,0.19-1.59,0.19-2.81c0-1.18-0.06-2.07-0.19-2.69c-0.13-0.61-0.29-1.03-0.48-1.26
			s-0.44-0.34-0.74-0.34c-0.33,0-0.6,0.12-0.81,0.35c-0.21,0.23-0.38,0.66-0.49,1.28s-0.17,1.5-0.17,2.64
			c0,1.28,0.06,2.24,0.17,2.89c0.11,0.65,0.27,1.08,0.47,1.29C11.85,18.96,12.12,19.06,12.44,19.06z"/>
		<path d="M19.04,19.62c-0.26,0-0.49-0.06-0.69-0.18c-0.19-0.12-0.36-0.3-0.5-0.54c-0.14-0.25-0.26-0.55-0.36-0.91h-0.02v1.52h-0.7
			V4.48h0.7v5.51c0,0.15,0,0.3,0,0.45s0,0.3,0,0.45v0.43h0.02c0.1-0.36,0.22-0.66,0.35-0.88c0.13-0.23,0.3-0.4,0.5-0.52
			c0.2-0.12,0.43-0.18,0.7-0.18c0.45,0,0.82,0.14,1.1,0.41s0.49,0.76,0.64,1.46c0.14,0.7,0.22,1.69,0.22,2.98
			c0,1.35-0.07,2.4-0.22,3.13c-0.14,0.73-0.35,1.23-0.63,1.5C19.87,19.49,19.5,19.62,19.04,19.62z M18.87,19.04
			c0.34,0,0.6-0.11,0.8-0.33c0.19-0.22,0.35-0.65,0.46-1.3c0.11-0.64,0.17-1.59,0.17-2.83c0-1.15-0.06-2.04-0.17-2.67
			c-0.11-0.63-0.28-1.05-0.49-1.27c-0.21-0.22-0.48-0.33-0.81-0.33c-0.3,0-0.55,0.11-0.74,0.34s-0.35,0.65-0.48,1.27
			c-0.13,0.62-0.19,1.51-0.19,2.66c0,1.2,0.06,2.13,0.19,2.78c0.12,0.65,0.29,1.09,0.5,1.33S18.57,19.04,18.87,19.04z"/>
		<path d="M25.24,19.62c-0.26,0-0.49-0.06-0.69-0.18c-0.19-0.12-0.36-0.3-0.5-0.54c-0.14-0.25-0.26-0.55-0.36-0.91h-0.02v1.52h-0.7
			V4.48h0.7v5.51c0,0.15,0,0.3,0,0.45s0,0.3,0,0.45v0.43h0.02c0.1-0.36,0.22-0.66,0.35-0.88c0.13-0.23,0.3-0.4,0.5-0.52
			c0.2-0.12,0.43-0.18,0.7-0.18c0.45,0,0.82,0.14,1.1,0.41s0.49,0.76,0.64,1.46c0.14,0.7,0.22,1.69,0.22,2.98
			c0,1.35-0.07,2.4-0.22,3.13c-0.14,0.73-0.35,1.23-0.63,1.5C26.07,19.49,25.7,19.62,25.24,19.62z M25.07,19.04
			c0.34,0,0.6-0.11,0.8-0.33c0.19-0.22,0.35-0.65,0.46-1.3c0.11-0.64,0.17-1.59,0.17-2.83c0-1.15-0.06-2.04-0.17-2.67
			c-0.11-0.63-0.28-1.05-0.49-1.27c-0.21-0.22-0.48-0.33-0.81-0.33c-0.3,0-0.55,0.11-0.74,0.34s-0.35,0.65-0.48,1.27
			c-0.13,0.62-0.19,1.51-0.19,2.66c0,1.2,0.06,2.13,0.19,2.78c0.12,0.65,0.29,1.09,0.5,1.33S24.77,19.04,25.07,19.04z"/>
		<path d="M29.53,7.69c-0.1,0-0.19-0.03-0.28-0.08c-0.09-0.05-0.16-0.12-0.21-0.21c-0.05-0.09-0.07-0.17-0.07-0.26
			c0-0.11,0.02-0.21,0.07-0.28c0.05-0.08,0.12-0.14,0.21-0.2c0.09-0.06,0.19-0.08,0.3-0.08c0.09,0,0.17,0.03,0.25,0.08
			s0.15,0.12,0.2,0.21c0.05,0.08,0.08,0.17,0.08,0.27S30.05,7.34,30,7.42c-0.05,0.08-0.12,0.15-0.2,0.2S29.63,7.69,29.53,7.69z
			 M29.17,19.51V9.85h0.7v9.66H29.17z"/>
		<path d="M32.31,19.51v-9.06h-1.02v-0.6h1.02V7.37h0.68v2.48h1.43v0.6h-1.43v9.06H32.31z"/>
		<path d="M35.97,7.69c-0.1,0-0.19-0.03-0.28-0.08c-0.09-0.05-0.16-0.12-0.21-0.21c-0.05-0.09-0.07-0.17-0.07-0.26
			c0-0.11,0.02-0.21,0.07-0.28c0.05-0.08,0.12-0.14,0.21-0.2c0.09-0.06,0.19-0.08,0.3-0.08c0.09,0,0.17,0.03,0.25,0.08
			s0.15,0.12,0.2,0.21c0.05,0.08,0.08,0.17,0.08,0.27s-0.02,0.19-0.08,0.27c-0.05,0.08-0.12,0.15-0.2,0.2S36.07,7.69,35.97,7.69z
			 M35.62,19.51V9.85h0.7v9.66H35.62z"/>
		<path d="M38.75,19.51v-9.06h-1.02v-0.6h1.02V7.37h0.68v2.48h1.43v0.6h-1.43v9.06H38.75z"/>
	</g>
</g>
</svg>
